<?xml version="1.0" encoding="utf-8"?>
<!-- Generator: Adobe Adobe Illustrator 29.2.0, SVG Export Plug-In . SVG Version: 6.00 Build 0)  -->
<svg version="1.1" xmlns="http://www.w3.org/2000/svg" xmlns:xlink="http://www.w3.org/1999/xlink" x="0px" y="0px"
	 viewBox="0 0 576 576" style="enable-background:new 0 0 576 576;" xml:space="preserve">
<style type="text/css">
	.st0{fill:none;stroke:#027DA2;stroke-miterlimit:10;}
	.st1{display:none;}
	.st2{display:inline;fill:#231F20;stroke:#231F20;stroke-miterlimit:10;}
	.st3{display:inline;fill:none;stroke:#027DA2;stroke-miterlimit:10;}
	.st4{display:inline;fill:none;stroke:#231F20;stroke-miterlimit:10;}
	.st5{display:inline;fill:#231F20;stroke:#000000;stroke-miterlimit:10;}
</style>
<g id="Layer_2">
	<polygon points="233.98,234.01 287.95,261 558.04,126.05 387,49.05 189.07,148.51 143.9,125.97 291.46,52.32 342.14,27.03 
		288,0.02 18.02,126.01 188.93,211.43 386.94,112.43 432.25,135.01 	"/>
	<polyline points="305.99,63 360.29,35.79 341.14,26.53 287.95,54.03 	"/>
	<polygon points="252,270 288,288.24 342,261 342,486 405,455 405,230 459,202.25 459,432 522,400.53 522,171 576,144 576,432 
		287.99,576 252,558 	"/>
	<path d="M225.01,256.52L0,144.01L0,432l225,112.5L225.01,256.52z M170.92,463.42L53.97,404.99l-0.24-180.02l117.35,58.54
		L170.92,463.42z"/>
	<polyline points="234.44,234.23 288.1,207.02 269.94,197.96 215.96,225.01 	"/>
</g>
<g id="Layer_3" class="st1">
	<path class="st2" d="M46.33,473.07l38.62,17.24l181.49-110.5L164.9,311.93L14.87,413.07l0,0c-5.05,3.4-11.52,3.88-17.01,1.26
		l-2.9-1.38l-11.54-5.5h0c-3.91-1.87-4.37-7.26-0.82-9.75l1.74-1.22l149.76-105.15l-30.94-20.68L-96.88,408.61l107.97,48.62
		l140.42-92.75l1.91-1.26c4.34-2.87,9.99-2.84,14.3,0.07l0,0l17.31,11.66h0c3.41,2.3,3.35,7.34-0.12,9.55l-0.17,0.11L46.33,473.07z"
		/>
	<line class="st4" x1="-96.88" y1="408.61" x2="103.15" y2="270.65"/>
	<line class="st2" x1="266.44" y1="379.8" x2="84.53" y2="490.31"/>
	<path class="st5" d="M62.68,504.29l24.28,8.6c0.16,0.06,0.34,0.05,0.49-0.03l20.16-10.44c0.41-0.21,0.9,0.08,0.91,0.54l2.38,156.37
		l0.07,4.88c0.06,4.11,4.47,6.69,8.09,4.73l4.69-2.54l32.75-17.75h0c4.94-2.68,7.97-7.88,7.87-13.5l-0.07-4.05l-2.79-157.34
		c0-0.22,0.11-0.43,0.3-0.54l34.97-21.05c0.41-0.25,0.94,0.04,0.94,0.52l2.74,165.61l0.04,2.38c0.06,3.73,4.05,6.08,7.34,4.33
		l1.3-0.69l29-15.44h0c4.75-2.53,7.66-7.53,7.52-12.91l-0.15-5.53L241.1,427.4c-0.01-0.23,0.12-0.44,0.32-0.56l32.85-18.62
		c0.41-0.23,0.92,0.06,0.93,0.53l4.95,211.44c0.01,0.23-0.12,0.45-0.33,0.56L92.61,721.07c-0.18,0.1-0.39,0.1-0.57,0.01l-27.2-13.6
		c-0.21-0.1-0.34-0.32-0.34-0.55l-2.65-202.04C61.84,504.46,62.27,504.15,62.68,504.29z"/>
	<path class="st5" d="M44.81,498.4l-158.11-71.1l-0.56,200.13L45.38,700.6L44.81,498.4z M19.39,644.44c0,6.65-3.98,12.25-12.92,8.3
		l-9.19-4.2l-82.23-37.58l0.92-139.37l90.66,39.59l2.26,0.99c6.38,2.78,10.5,9.08,10.5,16.04v0.12v111.44V644.44z"/>
	<line class="st4" x1="-96.88" y1="408.61" x2="103.15" y2="270.65"/>
	<line class="st2" x1="266.44" y1="379.8" x2="84.53" y2="490.31"/>
	<path class="st5" d="M273.48-0.64l25.38,8.99l21.3-11.03l2.15,140.81l0.18,11.5c0.13,8.64,9.39,14.06,16.99,9.94l10.87-5.89
		l4.12-2.23l4.45-2.41c10.62-5.76,17.15-16.95,16.93-29.02l-0.19-10.87l-2.49-140.37l36.21-21.79l2.39,144.85l0.29,17.29
		c0.11,6.91,7.49,11.25,13.58,8.01l8.7-4.63l5.08-2.7v0c11.12-5.92,17.93-17.62,17.59-30.21l-0.45-16.74l-3.81-140.44l34.08-19.32
		l4.98,212.86L303.97,216.58l-27.83-13.91L273.48-0.64z"/>
	<path class="st5" d="M256.45-6.24L98.34-77.35l-0.56,200.13l159.24,73.18L256.45-6.24z M231.03,132.48
		c0,6.02-3.52,18.44-17.13,13.5l-25.48-11.45l-61.74-28.22l0.92-139.37l62.47,27.28l14.9,6.51c15.83,6.91,26.06,22.54,26.06,39.82
		v23.8v42.92V132.48z"/>
</g>
</svg>
