<?xml version="1.0" encoding="utf-8"?>
<!-- Generator: Adobe Adobe Illustrator 29.2.0, SVG Export Plug-In . SVG Version: 6.00 Build 0)  -->
<svg version="1.1" xmlns="http://www.w3.org/2000/svg" xmlns:xlink="http://www.w3.org/1999/xlink" x="0px" y="0px"
	 viewBox="0 0 576 576" style="enable-background:new 0 0 576 576;" xml:space="preserve">
<style type="text/css">
	.st0{fill:none;stroke:#027DA2;stroke-miterlimit:10;}
	.st1{display:none;}
	.st2{display:inline;fill:#231F20;stroke:#231F20;stroke-miterlimit:10;}
	.st3{display:inline;fill:none;stroke:#027DA2;stroke-miterlimit:10;}
	.st4{display:inline;fill:none;stroke:#231F20;stroke-miterlimit:10;}
	.st5{display:inline;fill:#231F20;stroke:#000000;stroke-miterlimit:10;}
</style>
<g id="Layer_2">
	<path d="M266.2,250.12l13.71,6.86c5.07,2.53,11.03,2.53,16.1,0l228.12-113.98c13.57-6.78,13.18-26.29-0.66-32.52L394.82,52.57
		c-4.94-2.23-10.63-2.1-15.47,0.33l-182.22,91.57c-5.07,2.55-11.04,2.56-16.12,0.02l-4.83-2.41c-13.28-6.63-13.28-25.58,0-32.21
		l133.68-66.72c13.28-6.63,13.28-25.59-0.01-32.21L295.77,3.9c-4.91-2.45-10.67-2.52-15.64-0.2L51.78,110.25
		c-13.65,6.37-13.91,25.68-0.44,32.41l129.54,64.74c5.07,2.53,11.03,2.53,16.1,0l181.92-90.96c5.06-2.53,11.02-2.53,16.08-0.01
		l4.97,2.48c13.29,6.62,13.3,25.58,0.01,32.21l-133.76,66.79C252.93,224.54,252.93,243.48,266.2,250.12z"/>
	<path d="M278.13,283.24l1.75,0.89c5.1,2.59,11.13,2.59,16.24,0.01l19.77-9.97c11.97-6.04,26.11,2.66,26.11,16.07v166.84
		c0,13.33,13.99,22.04,25.95,16.15l27-13.29c6.15-3.03,10.05-9.29,10.05-16.15V240.99c0-6.75,3.77-12.93,9.77-16.01l18-9.25
		c11.98-6.16,26.23,2.54,26.23,16.01v171.15c0,13.38,14.08,22.08,26.04,16.1l27-13.49c6.1-3.05,9.96-9.28,9.96-16.1V182.13
		c0-6.82,3.85-13.05,9.95-16.1l18-9c11.97-5.98,26.05,2.72,26.05,16.1l0,247.74c0,6.82-3.85,13.05-9.95,16.1l-270,135
		c-5.07,2.53-11.03,2.53-16.1,0l-17.99-9c-6.1-3.05-9.95-9.28-9.95-16.1V299.3C252,285.87,266.16,277.17,278.13,283.24z"/>
	<path d="M215.06,251.55L26.05,157.04C14.08,151.05,0,159.75,0,173.14l0,247.74c0,6.82,3.85,13.05,9.95,16.1l189,94.5
		c11.97,5.98,26.05-2.72,26.05-16.1l0.01-247.73C225.01,260.83,221.16,254.59,215.06,251.55z M144.9,450.42l-80.99-40.46
		c-6.09-3.04-9.95-9.27-9.96-16.08l-0.18-139.77c-0.02-13.38,14.06-22.11,26.03-16.13l81.3,40.56c6.11,3.05,9.97,9.29,9.97,16.12
		l-0.13,139.67C170.93,447.71,156.86,456.4,144.9,450.42z"/>
</g>
<g id="Layer_3" class="st1">
	<path class="st2" d="M46.33,473.07l38.62,17.24l181.49-110.5L164.9,311.93L14.87,413.07l0,0c-5.05,3.4-11.52,3.88-17.01,1.26
		l-2.9-1.38l-11.54-5.5h0c-3.91-1.87-4.37-7.26-0.82-9.75l1.74-1.22l149.76-105.15l-30.94-20.68L-96.88,408.61l107.97,48.62
		l140.42-92.75l1.91-1.26c4.34-2.87,9.99-2.84,14.3,0.07l0,0l17.31,11.66h0c3.41,2.3,3.35,7.34-0.12,9.55l-0.17,0.11L46.33,473.07z"
		/>
	<line class="st4" x1="-96.88" y1="408.61" x2="103.15" y2="270.65"/>
	<line class="st2" x1="266.44" y1="379.8" x2="84.53" y2="490.31"/>
	<path class="st5" d="M62.68,504.29l24.28,8.6c0.16,0.06,0.34,0.05,0.49-0.03l20.16-10.44c0.41-0.21,0.9,0.08,0.91,0.54l2.38,156.37
		l0.07,4.88c0.06,4.11,4.47,6.69,8.09,4.73l4.69-2.54l32.75-17.75h0c4.94-2.68,7.97-7.88,7.87-13.5l-0.07-4.05l-2.79-157.34
		c0-0.22,0.11-0.43,0.3-0.54l34.97-21.05c0.41-0.25,0.94,0.04,0.94,0.52l2.74,165.61l0.04,2.38c0.06,3.73,4.05,6.08,7.34,4.33
		l1.3-0.69l29-15.44h0c4.75-2.53,7.66-7.53,7.52-12.91l-0.15-5.53L241.1,427.4c-0.01-0.23,0.12-0.44,0.32-0.56l32.85-18.62
		c0.41-0.23,0.92,0.06,0.93,0.53l4.95,211.44c0.01,0.23-0.12,0.45-0.33,0.56L92.61,721.07c-0.18,0.1-0.39,0.1-0.57,0.01l-27.2-13.6
		c-0.21-0.1-0.34-0.32-0.34-0.55l-2.65-202.04C61.84,504.46,62.27,504.15,62.68,504.29z"/>
	<path class="st5" d="M44.81,498.4l-158.11-71.1l-0.56,200.13L45.38,700.6L44.81,498.4z M19.39,644.44c0,6.65-3.98,12.25-12.92,8.3
		l-9.19-4.2l-82.23-37.58l0.92-139.37l90.66,39.59l2.26,0.99c6.38,2.78,10.5,9.08,10.5,16.04v0.12v111.44V644.44z"/>
	<line class="st4" x1="-96.88" y1="408.61" x2="103.15" y2="270.65"/>
	<line class="st2" x1="266.44" y1="379.8" x2="84.53" y2="490.31"/>
	<path class="st5" d="M273.48-0.64l25.38,8.99l21.3-11.03l2.15,140.81l0.18,11.5c0.13,8.64,9.39,14.06,16.99,9.94l10.87-5.89
		l4.12-2.23l4.45-2.41c10.62-5.76,17.15-16.95,16.93-29.02l-0.19-10.87l-2.49-140.37l36.21-21.79l2.39,144.85l0.29,17.29
		c0.11,6.91,7.49,11.25,13.58,8.01l8.7-4.63l5.08-2.7v0c11.12-5.92,17.93-17.62,17.59-30.21l-0.45-16.74l-3.81-140.44l34.08-19.32
		l4.98,212.86L303.97,216.58l-27.83-13.91L273.48-0.64z"/>
	<path class="st5" d="M256.45-6.24L98.34-77.35l-0.56,200.13l159.24,73.18L256.45-6.24z M231.03,132.48
		c0,6.02-3.52,18.44-17.13,13.5l-25.48-11.45l-61.74-28.22l0.92-139.37l62.47,27.28l14.9,6.51c15.83,6.91,26.06,22.54,26.06,39.82
		v23.8v42.92V132.48z"/>
</g>
</svg>
